<svg width="1600" height="1200" viewBox="0 0 1600 1200" fill="none" xmlns="http://www.w3.org/2000/svg">
  <rect width="1600" height="1200" fill="#04060A"/>
  <g filter="url(#glow)">
    <circle cx="620" cy="620" r="120" fill="url(#node)"/>
    <circle cx="980" cy="420" r="90" fill="url(#node)"/>
    <circle cx="1050" cy="760" r="70" fill="url(#node)"/>
    <circle cx="780" cy="370" r="55" fill="url(#node)"/>
    <circle cx="450" cy="480" r="65" fill="url(#node)"/>
    <circle cx="880" cy="900" r="55" fill="url(#node)"/>
    <circle cx="1180" cy="600" r="60" fill="url(#node)"/>
    <circle cx="420" cy="760" r="52" fill="url(#node)"/>
  </g>
  <g opacity="0.5" stroke="url(#link)" stroke-width="2" stroke-linecap="round">
    <path d="M620 620L980 420"/>
    <path d="M620 620L1050 760"/>
    <path d="M620 620L780 370"/>
    <path d="M620 620L450 480"/>
    <path d="M620 620L880 900"/>
    <path d="M620 620L1180 600"/>
    <path d="M620 620L420 760"/>
    <path d="M980 420L1050 760"/>
    <path d="M980 420L1180 600"/>
    <path d="M1050 760L1180 600"/>
    <path d="M420 760L450 480"/>
  </g>
  <rect width="1600" height="1200" fill="url(#shade)"/>
  <defs>
    <radialGradient id="node" cx="0" cy="0" r="1" gradientUnits="userSpaceOnUse" gradientTransform="translate(0 0) scale(1)">
      <stop stop-color="#89C9FF"/>
      <stop offset="1" stop-color="#0D2134"/>
    </radialGradient>
    <linearGradient id="link" x1="0" y1="0" x2="1" y2="1">
      <stop stop-color="#1C486A"/>
      <stop offset="1" stop-color="#0F2034"/>
    </linearGradient>
    <radialGradient id="shade" cx="0" cy="0" r="1" gradientUnits="userSpaceOnUse" gradientTransform="translate(800 600) rotate(90) scale(650 900)">
      <stop stop-color="#00000000"/>
      <stop offset="1" stop-color="#04060A"/>
    </radialGradient>
    <filter id="glow" x="300" y="260" width="960" height="760" filterUnits="userSpaceOnUse">
      <feGaussianBlur stdDeviation="20" result="blur"/>
      <feMerge>
        <feMergeNode in="blur"/>
        <feMergeNode in="SourceGraphic"/>
      </feMerge>
    </filter>
  </defs>
</svg>
