<svg width="1600" height="1200" viewBox="0 0 1600 1200" fill="none" xmlns="http://www.w3.org/2000/svg">
  <rect width="1600" height="1200" fill="#05070B"/>
  <g filter="url(#blur)">
    <circle cx="800" cy="600" r="420" fill="url(#glow)"/>
  </g>
  <g opacity="0.45">
    <path d="M800 150L1030 0L1180 420L960 600L800 150Z" fill="url(#panel)"/>
    <path d="M800 150L570 0L420 420L640 600L800 150Z" fill="url(#panel)"/>
    <path d="M800 1050L1030 1200L1180 780L960 600L800 1050Z" fill="url(#panel)"/>
    <path d="M800 1050L570 1200L420 780L640 600L800 1050Z" fill="url(#panel)"/>
    <path d="M1160 360L1390 210L1450 600L1080 600L1160 360Z" fill="url(#panel)"/>
    <path d="M440 360L210 210L150 600L520 600L440 360Z" fill="url(#panel)"/>
    <path d="M1120 840L1350 990L1290 600L920 600L1120 840Z" fill="url(#panel)"/>
    <path d="M480 840L250 990L310 600L680 600L480 840Z" fill="url(#panel)"/>
  </g>
  <circle cx="800" cy="600" r="140" fill="url(#core)"/>
  <circle cx="800" cy="600" r="70" fill="#F4F7FF" fill-opacity="0.9"/>
  <defs>
    <radialGradient id="glow" cx="0" cy="0" r="1" gradientUnits="userSpaceOnUse" gradientTransform="translate(800 600) rotate(90) scale(500)">
      <stop stop-color="#1F2735" stop-opacity="0.8"/>
      <stop offset="1" stop-color="#05070B" stop-opacity="0"/>
    </radialGradient>
    <linearGradient id="panel" x1="0" y1="0" x2="1" y2="1" gradientUnits="objectBoundingBox">
      <stop stop-color="#0F121B"/>
      <stop offset="1" stop-color="#06070C"/>
    </linearGradient>
    <radialGradient id="core" cx="0" cy="0" r="1" gradientUnits="userSpaceOnUse" gradientTransform="translate(800 600) scale(160)">
      <stop stop-color="#6EA8FF" stop-opacity="0.8"/>
      <stop offset="1" stop-color="#162030" stop-opacity="0"/>
    </radialGradient>
    <filter id="blur" x="150" y="-50" width="1300" height="1300" filterUnits="userSpaceOnUse" color-interpolation-filters="sRGB">
      <feGaussianBlur stdDeviation="70"/>
    </filter>
  </defs>
</svg>
