<svg width="1600" height="1200" viewBox="0 0 1600 1200" fill="none" xmlns="http://www.w3.org/2000/svg">
  <rect width="1600" height="1200" fill="#040509"/>
  <path d="M100 750C260 630 380 610 540 690C700 770 840 770 1000 690C1160 610 1280 630 1440 750" stroke="url(#waveGradient)" stroke-width="40" stroke-linecap="round" stroke-linejoin="round"/>
  <path d="M160 580C320 460 440 440 600 520C760 600 900 600 1060 520C1220 440 1340 460 1500 580" stroke="url(#waveGradientSoft)" stroke-width="24" stroke-linecap="round" stroke-linejoin="round" opacity="0.4"/>
  <path d="M120 910C280 790 400 770 560 850C720 930 860 930 1020 850C1180 770 1300 790 1460 910" stroke="url(#waveGradientSoft)" stroke-width="24" stroke-linecap="round" stroke-linejoin="round" opacity="0.35"/>
  <rect width="1600" height="1200" fill="url(#fade)"/>
  <defs>
    <linearGradient id="waveGradient" x1="0" y1="0" x2="1" y2="0">
      <stop stop-color="#0F6FFF"/>
      <stop offset="0.4" stop-color="#61B7FF"/>
      <stop offset="1" stop-color="#0B1F35"/>
    </linearGradient>
    <linearGradient id="waveGradientSoft" x1="0" y1="0" x2="1" y2="0">
      <stop stop-color="#12344A"/>
      <stop offset="0.5" stop-color="#3377AA"/>
      <stop offset="1" stop-color="#102234"/>
    </linearGradient>
    <radialGradient id="fade" cx="0" cy="0" r="1" gradientUnits="userSpaceOnUse" gradientTransform="translate(800 600) rotate(90) scale(640 900)">
      <stop stop-color="#00000000"/>
      <stop offset="1" stop-color="#040509"/>
    </radialGradient>
  </defs>
</svg>
