<svg xmlns="http://www.w3.org/2000/svg" width="96" height="96" viewBox="0 0 96 96">
  <defs>
    <radialGradient id="rg" cx="50%" cy="50%" r="60%">
      <stop offset="0%" stop-color="#f5f5f5" stop-opacity="0.9" />
      <stop offset="45%" stop-color="#5f5f5f" stop-opacity="0.85" />
      <stop offset="100%" stop-color="#1a1a1a" stop-opacity="0.9" />
    </radialGradient>
    <linearGradient id="lg" x1="0%" y1="0%" x2="100%" y2="100%">
      <stop offset="0%" stop-color="#4a4a4a" />
      <stop offset="100%" stop-color="#151515" />
    </linearGradient>
  </defs>
  <path d="M48 16c-11 0-20 9-20 20 0 6 3 12 8 16-5 4-8 10-8 16 0 11 9 20 20 20s20-9 20-20c0-6-3-12-8-16 5-4 8-10 8-16 0-11-9-20-20-20zm0 12c4 0 8 3 8 8 0 3-2 6-5 7-1 1-3 1-3 3s2 2 3 3c3 1 5 4 5 7 0 5-4 8-8 8s-8-3-8-8c0-3 2-6 5-7 1-1 3-1 3-3s-2-2-3-3c-3-1-5-4-5-7 0-5 4-8 8-8z" fill="url(#rg)" stroke="url(#lg)" stroke-width="2" stroke-linejoin="round" />
</svg>
